<svg id="Layer_1" data-name="Layer 1" xmlns="http://www.w3.org/2000/svg" viewBox="0 0 8.84 6.63"><title>Coordinate Mobile Spec [Converted]</title><path d="M109.33,114.62h8.39a0.22,0.22,0,1,1,0,.44h-8.39A0.22,0.22,0,1,1,109.33,114.62Z" transform="translate(-109.1 -111.53)" fill="#fff" fill-rule="evenodd"/><path d="M109.16,114.7l3.56-3.11a0.21,0.21,0,1,1,.3.3L109.46,115A0.21,0.21,0,1,1,109.16,114.7Z" transform="translate(-109.1 -111.53)" fill="#fff" fill-rule="evenodd"/><path d="M109.16,115l3.56,3.11a0.21,0.21,0,1,0,.3-0.3l-3.56-3.11A0.21,0.21,0,0,0,109.16,115Z" transform="translate(-109.1 -111.53)" fill="#fff" fill-rule="evenodd"/></svg>